<?xml version="1.0" encoding="utf-8"?>
<!-- Generator: Adobe Illustrator 24.0.2, SVG Export Plug-In . SVG Version: 6.00 Build 0)  -->
<svg version="1.1" id="Camada_1" xmlns="http://www.w3.org/2000/svg" xmlns:xlink="http://www.w3.org/1999/xlink" x="0px" y="0px"
	 viewBox="0 0 2551.2 2551.2" style="enable-background:new 0 0 2551.2 2551.2;" xml:space="preserve">
<style type="text/css">
	.st0{fill:#702784;}
	.st1{fill:#AC2986;}
	.st2{fill:#4A4847;}
	.st3{fill:url(#SVGID_1_);}
</style>
<g>
	<path class="st0" d="M796.5,831.1c0,0-109,137.3,0,269.4l376.7,399.7c0,0,110.6,92.8,0,207l-188,203.4l-383.1-342.9L516.5,1452
		L488,1241.5l44.6-324.8L653.9,734L796.5,831.1z"/>
	<path class="st1" d="M932.7-0.1l265.5,254.7c0,0,66.7,86.8,0,156.5L796.5,831.1c0,0-397.7,418.8-194.4,736.7
		c0,0-443.6-329.2-217.8-925.9c28.7-75.9,73-145.2,129.2-203.9L932.7-0.1z"/>
	<path class="st2" d="M1754.6,1720.1c0,0,109-137.3,0-269.4L1378,1051c0,0-110.6-92.8,0-207l188-203.4L1949,983.4l85.7,115.8
		l28.6,210.6l-44.6,324.8l-121.3,182.7L1754.6,1720.1z"/>
	<linearGradient id="SVGID_1_" gradientUnits="userSpaceOnUse" x1="2091.7581" y1="2078.0325" x2="1473.0602" y2="1459.3346">
		<stop  offset="0" style="stop-color:#3C3C3B"/>
		<stop  offset="1" style="stop-color:#000000"/>
	</linearGradient>
	<path class="st3" d="M1618.5,2551.3L1353,2296.5c0,0-66.7-86.8,0-156.5l401.7-419.9c0,0,397.7-418.8,194.4-736.7
		c0,0,443.6,329.2,217.8,925.9c-28.7,75.9-73,145.2-129.2,203.9L1618.5,2551.3z"/>
</g>
</svg>
