<svg width="478" height="277" viewBox="0 0 478 277" fill="none" xmlns="http://www.w3.org/2000/svg">
<path d="M16.8691 15C19.0657 15 20.8464 13.2091 20.8464 11C20.8464 8.79086 19.0657 7 16.8691 7C14.6724 7 12.8917 8.79086 12.8917 11C12.8917 13.2091 14.6724 15 16.8691 15Z" fill="#8A2BE2"/>
<path d="M27.8067 15C30.0033 15 31.784 13.2091 31.784 11C31.784 8.79086 30.0033 7 27.8067 7C25.6101 7 23.8293 8.79086 23.8293 11C23.8293 13.2091 25.6101 15 27.8067 15Z" fill="#8A2BE2"/>
<path d="M38.7444 15C40.9411 15 42.7218 13.2091 42.7218 11C42.7218 8.79086 40.9411 7 38.7444 7C36.5478 7 34.7671 8.79086 34.7671 11C34.7671 13.2091 36.5478 15 38.7444 15Z" fill="#8A2BE2"/>
<path opacity="0.3" d="M131.218 161.873H73.5461V167.873H131.218V161.873Z" fill="#8A2BE2"/>
<path opacity="0.3" d="M128.1 174.873H73.5461V180.873H128.1V174.873Z" fill="#8A2BE2"/>
<path opacity="0.3" d="M113.293 187.873H73.5461V193.873H113.293V187.873Z" fill="#8A2BE2"/>
<g opacity="0.3">
<path opacity="0.3" d="M265.453 161.873H207.781V167.873H265.453V161.873Z" fill="#8A2BE2"/>
<path opacity="0.3" d="M262.335 174.873H207.781V180.873H262.335V174.873Z" fill="#8A2BE2"/>
<path opacity="0.3" d="M247.528 187.873H207.781V193.873H247.528V187.873Z" fill="#8A2BE2"/>
<path opacity="0.3" d="M265.453 161.873H207.781V167.873H265.453V161.873Z" fill="#8A2BE2"/>
<path opacity="0.3" d="M262.335 174.873H207.781V180.873H262.335V174.873Z" fill="#8A2BE2"/>
<path opacity="0.3" d="M247.528 187.873H207.781V193.873H247.528V187.873Z" fill="#8A2BE2"/>
</g>
<path opacity="0.3" d="M404.66 161.873H346.988V167.873H404.66V161.873Z" fill="#8A2BE2"/>
<path opacity="0.3" d="M401.542 174.873H346.988V180.873H401.542V174.873Z" fill="#8A2BE2"/>
<path opacity="0.3" d="M386.735 187.873H346.988V193.873H386.735V187.873Z" fill="#8A2BE2"/>
<path opacity="0.3" d="M139.172 83.8726H65.5914V149.873H139.172V83.8726Z" fill="#8A2BE2"/>
<path d="M273.407 83.8726H199.827V149.873H273.407V83.8726Z" fill="#3F3D56"/>
<path d="M412.614 83.8726H339.034V149.873H412.614V83.8726Z" fill="#3F3D56"/>
<path d="M227.03 149.595L226.06 149.576C226.08 148.495 226.687 123.015 236.661 115.972L237.219 116.771C227.647 123.53 227.035 149.335 227.03 149.595Z" fill="#8A2BE2"/>
<path d="M241.794 115.65C244.474 115.65 246.647 113.464 246.647 110.768C246.647 108.073 244.474 105.887 241.794 105.887C239.113 105.887 236.94 108.073 236.94 110.768C236.94 113.464 239.113 115.65 241.794 115.65Z" fill="#8A2BE2"/>
<path d="M240.812 128.004C238.288 128.802 235.599 128.919 233.015 128.343C234.656 126.242 236.865 124.664 239.377 123.797C241.89 122.93 244.597 122.813 247.175 123.458C245.486 125.508 243.292 127.075 240.812 128.004V128.004Z" fill="#8A2BE2"/>
<path d="M366.237 149.595L365.266 149.576C365.287 148.495 365.894 123.015 375.868 115.972L376.426 116.771C366.854 123.53 366.242 149.335 366.237 149.595Z" fill="#8A2BE2"/>
<path d="M381.001 115.65C383.681 115.65 385.854 113.464 385.854 110.768C385.854 108.073 383.681 105.887 381.001 105.887C378.32 105.887 376.147 108.073 376.147 110.768C376.147 113.464 378.32 115.65 381.001 115.65Z" fill="#8A2BE2"/>
<path d="M380.019 128.004C377.495 128.802 374.806 128.919 372.222 128.343C373.863 126.242 376.072 124.664 378.584 123.797C381.097 122.93 383.804 122.813 386.381 123.458C384.693 125.508 382.499 127.075 380.019 128.004V128.004Z" fill="#8A2BE2"/>
<path d="M477.246 277H0.959717V0H477.246V277ZM2.94839 275H475.257V2H2.94839V275Z" fill="#2F2E41"/>
<path d="M476.252 20.0649H1.95398V22.0649H476.252V20.0649Z" fill="#2F2E41"/>
</svg>
